<svg width="231" height="177" viewBox="0 0 231 177" fill="none" xmlns="http://www.w3.org/2000/svg">
<mask id="path-1-inside-1_2407_5255" fill="white">
<path fill-rule="evenodd" clip-rule="evenodd" d="M30 9.31689C13.4315 9.31689 0 22.7483 0 39.3169V119.095C0 135.663 13.4314 149.095 30 149.095H68.607C79.5183 149.095 90.1301 152.664 98.8236 159.258L121.073 176.134C121.46 176.428 121.997 176.052 121.853 175.588C117.773 162.436 127.602 149.095 141.373 149.095H167.588C184.157 149.095 197.588 135.663 197.588 119.095V39.3169C197.588 22.7484 184.157 9.31689 167.588 9.31689H30Z"/>
</mask>
<path fill-rule="evenodd" clip-rule="evenodd" d="M30 9.31689C13.4315 9.31689 0 22.7483 0 39.3169V119.095C0 135.663 13.4314 149.095 30 149.095H68.607C79.5183 149.095 90.1301 152.664 98.8236 159.258L121.073 176.134C121.46 176.428 121.997 176.052 121.853 175.588C117.773 162.436 127.602 149.095 141.373 149.095H167.588C184.157 149.095 197.588 135.663 197.588 119.095V39.3169C197.588 22.7484 184.157 9.31689 167.588 9.31689H30Z" fill="#101010"/>
<path d="M121.073 176.134L120.468 176.931H120.468L121.073 176.134ZM1 39.3169C1 23.3006 13.9837 10.3169 30 10.3169V8.31689C12.8792 8.31689 -1 22.1961 -1 39.3169H1ZM1 119.095V39.3169H-1V119.095H1ZM30 148.095C13.9837 148.095 1 135.111 1 119.095H-1C-1 136.216 12.8791 150.095 30 150.095V148.095ZM68.607 148.095H30V150.095H68.607V148.095ZM121.677 175.338L99.4279 158.461L98.2192 160.055L120.468 176.931L121.677 175.338ZM120.897 175.884C120.753 175.42 121.29 175.044 121.677 175.338L120.468 176.931C121.631 177.813 123.24 176.685 122.808 175.292L120.897 175.884ZM167.588 148.095H141.373V150.095H167.588V148.095ZM196.588 119.095C196.588 135.111 183.604 148.095 167.588 148.095V150.095C184.709 150.095 198.588 136.216 198.588 119.095H196.588ZM196.588 39.3169V119.095H198.588V39.3169H196.588ZM167.588 10.3169C183.604 10.3169 196.588 23.3006 196.588 39.3169H198.588C198.588 22.1961 184.709 8.31689 167.588 8.31689V10.3169ZM30 10.3169H167.588V8.31689H30V10.3169ZM122.808 175.292C118.927 162.783 128.276 150.095 141.373 150.095V148.095C126.929 148.095 116.618 162.089 120.897 175.884L122.808 175.292ZM68.607 150.095C79.3001 150.095 89.6997 153.593 98.2192 160.055L99.4279 158.461C90.5606 151.735 79.7366 148.095 68.607 148.095V150.095Z" fill="#101010" mask="url(#path-1-inside-1_2407_5255)"/>
<mask id="path-3-inside-2_2407_5255" fill="white">
<path fill-rule="evenodd" clip-rule="evenodd" d="M38 0C21.4315 0 8 13.4315 8 30V109.778C8 126.346 21.4314 139.778 38 139.778H60.4569C81.843 139.778 102.642 146.774 119.681 159.698L129.073 166.822C129.46 167.115 129.997 166.739 129.853 166.275C125.772 153.121 135.603 139.778 149.376 139.778H175.588C192.157 139.778 205.588 126.346 205.588 109.778V30C205.588 13.4315 192.157 0 175.588 0H38Z"/>
</mask>
<path fill-rule="evenodd" clip-rule="evenodd" d="M38 0C21.4315 0 8 13.4315 8 30V109.778C8 126.346 21.4314 139.778 38 139.778H60.4569C81.843 139.778 102.642 146.774 119.681 159.698L129.073 166.822C129.46 167.115 129.997 166.739 129.853 166.275C125.772 153.121 135.603 139.778 149.376 139.778H175.588C192.157 139.778 205.588 126.346 205.588 109.778V30C205.588 13.4315 192.157 0 175.588 0H38Z" fill="#7440FF"/>
<path d="M129.073 166.822L128.468 167.618H128.468L129.073 166.822ZM9 30C9 13.9837 21.9837 1 38 1V-1C20.8792 -1 7 12.8792 7 30H9ZM9 109.778V30H7V109.778H9ZM38 138.778C21.9837 138.778 9 125.794 9 109.778H7C7 126.899 20.8791 140.778 38 140.778V138.778ZM60.4569 138.778H38V140.778H60.4569V138.778ZM129.677 166.025L120.286 158.901L119.077 160.495L128.468 167.618L129.677 166.025ZM128.897 166.571C128.753 166.107 129.29 165.731 129.677 166.025L128.468 167.618C129.631 168.5 131.24 167.372 130.808 165.979L128.897 166.571ZM175.588 138.778H149.376V140.778H175.588V138.778ZM204.588 109.778C204.588 125.794 191.604 138.778 175.588 138.778V140.778C192.709 140.778 206.588 126.899 206.588 109.778H204.588ZM204.588 30V109.778H206.588V30H204.588ZM175.588 1C191.604 1 204.588 13.9837 204.588 30H206.588C206.588 12.8792 192.709 -1 175.588 -1V1ZM38 1H175.588V-1H38V1ZM130.808 165.979C126.927 153.468 136.277 140.778 149.376 140.778V138.778C134.93 138.778 124.617 152.774 128.897 166.571L130.808 165.979ZM60.4569 140.778C81.6248 140.778 102.212 147.702 119.077 160.495L120.286 158.901C103.073 145.845 82.0613 138.778 60.4569 138.778V140.778Z" fill="#101010" mask="url(#path-3-inside-2_2407_5255)"/>
<circle cx="66.5" cy="75.5" r="5" fill="white" stroke="#101010"/>
<circle cx="83" cy="75" r="6.5" fill="white" stroke="#101010"/>
<circle cx="101" cy="75" r="6.5" fill="white" stroke="#101010"/>
<rect x="114.5" y="67.5" width="29" height="14" rx="7" fill="white" stroke="#101010"/>
</svg>
