<svg width="217" height="167" viewBox="0 0 217 167" fill="none" xmlns="http://www.w3.org/2000/svg">
<mask id="path-1-inside-1_2407_5255" fill="white">
<path fill-rule="evenodd" clip-rule="evenodd" d="M30 0C13.4315 0 0 13.4315 0 30V109.778C0 126.346 13.4315 139.778 30 139.778H48.632C70.5806 139.778 91.8938 147.146 109.156 160.701L116.909 166.789C117.293 167.09 117.837 166.72 117.697 166.252V166.252C113.743 153.056 123.625 139.778 137.401 139.778H160.861C177.429 139.778 190.861 126.346 190.861 109.778V30C190.861 13.4315 177.429 0 160.861 0H30Z"/>
</mask>
<path fill-rule="evenodd" clip-rule="evenodd" d="M30 0C13.4315 0 0 13.4315 0 30V109.778C0 126.346 13.4315 139.778 30 139.778H48.632C70.5806 139.778 91.8938 147.146 109.156 160.701L116.909 166.789C117.293 167.09 117.837 166.72 117.697 166.252V166.252C113.743 153.056 123.625 139.778 137.401 139.778H160.861C177.429 139.778 190.861 126.346 190.861 109.778V30C190.861 13.4315 177.429 0 160.861 0H30Z" fill="#7440FF"/>
<path d="M116.909 166.789L116.291 167.575L116.291 167.576L116.909 166.789ZM1 30C1 13.9837 13.9837 1 30 1V-1C12.8792 -1 -1 12.8792 -1 30H1ZM1 109.778V30H-1V109.778H1ZM30 138.778C13.9838 138.778 1 125.794 1 109.778H-1C-1 126.899 12.8792 140.778 30 140.778V138.778ZM48.632 138.778H30V140.778H48.632V138.778ZM117.527 166.003L109.774 159.915L108.539 161.488L116.291 167.575L117.527 166.003ZM116.739 166.539C116.599 166.072 117.143 165.701 117.527 166.002L116.291 167.576C117.443 168.48 119.075 167.368 118.655 165.965L116.739 166.539ZM160.861 138.778H137.401V140.778H160.861V138.778ZM189.861 109.778C189.861 125.794 176.877 138.778 160.861 138.778V140.778C177.981 140.778 191.861 126.899 191.861 109.778H189.861ZM189.861 30V109.778H191.861V30H189.861ZM160.861 1C176.877 1 189.861 13.9837 189.861 30H191.861C191.861 12.8792 177.981 -1 160.861 -1V1ZM30 1H160.861V-1H30V1ZM118.655 165.965C114.893 153.41 124.295 140.778 137.401 140.778V138.778C122.955 138.778 112.592 152.701 116.739 166.539L118.655 165.965ZM48.632 140.778C70.3566 140.778 91.4523 148.071 108.539 161.488L109.774 159.915C92.3352 146.221 70.8045 138.778 48.632 138.778V140.778Z" fill="#101010" mask="url(#path-1-inside-1_2407_5255)"/>
<circle cx="51.7723" cy="75.5" r="5" fill="white" stroke="#101010"/>
<circle cx="68.2723" cy="75" r="6.5" fill="white" stroke="#101010"/>
<circle cx="86.2723" cy="75" r="6.5" fill="white" stroke="#101010"/>
<rect x="99.7723" y="67.5" width="29" height="14" rx="7" fill="white" stroke="#101010"/>
</svg>
